<?xml version="1.0" standalone="no"?>
<!DOCTYPE svg PUBLIC "-//W3C//DTD SVG 20010904//EN"
 "http://www.w3.org/TR/2001/REC-SVG-20010904/DTD/svg10.dtd">
<svg version="1.0" xmlns="http://www.w3.org/2000/svg"
 width="900.000000pt" height="873.000000pt" viewBox="0 0 900.000000 873.000000"
 preserveAspectRatio="xMidYMid meet">
<metadata>
Created by potrace 1.10, written by Peter Selinger 2001-2011
</metadata>
<g transform="translate(0.000000,873.000000) scale(0.100000,-0.100000)"
fill="#000000" stroke="none">
<path d="M3090 7389 c-25 -4 -67 -12 -95 -17 -80 -15 -183 -55 -270 -104 -289
-164 -522 -468 -576 -753 -4 -22 -12 -60 -18 -85 -13 -59 -13 -372 0 -430 6
-25 14 -65 18 -90 13 -70 42 -174 52 -184 5 -6 9 -18 9 -28 0 -9 7 -34 16 -55
39 -90 93 -205 133 -281 8 -15 18 -28 23 -30 4 -2 8 -8 8 -13 0 -8 98 -159
110 -169 4 -3 21 -27 40 -55 18 -27 40 -57 49 -66 9 -9 48 -51 86 -94 39 -43
92 -102 118 -131 40 -43 47 -56 41 -78 -8 -32 2 -91 19 -108 7 -7 44 -49 82
-93 181 -207 411 -425 730 -694 66 -56 357 -280 404 -311 26 -17 191 -136 206
-148 6 -5 31 -21 57 -36 26 -15 50 -37 54 -48 5 -18 1 -157 -12 -323 -5 -70
33 -597 46 -629 5 -15 10 -44 10 -65 0 -21 7 -60 15 -87 17 -56 12 -81 -18
-95 -12 -5 -35 -18 -52 -29 -16 -11 -39 -24 -50 -30 -11 -6 -33 -19 -50 -30
-16 -10 -52 -31 -80 -45 -27 -14 -66 -35 -85 -47 -19 -11 -55 -31 -80 -45 -25
-13 -58 -33 -75 -43 -76 -46 -424 -212 -535 -255 -25 -9 -60 -23 -78 -31 -18
-8 -39 -14 -47 -14 -8 0 -29 -6 -47 -14 -33 -13 -100 -33 -188 -55 -80 -20
-263 -43 -345 -43 -163 -1 -323 33 -435 93 -8 4 -33 17 -55 29 -62 33 -185
167 -221 241 -58 119 -63 137 -70 237 l-7 100 104 68 c117 76 225 172 274 241
28 40 76 137 95 190 26 73 28 217 4 271 -57 129 -103 174 -214 208 -85 26
-235 13 -272 -24 -7 -7 -16 -12 -21 -12 -5 0 -32 -20 -60 -45 -29 -25 -56 -45
-62 -45 -6 0 -27 17 -48 37 -129 133 -335 136 -484 8 -109 -93 -135 -290 -60
-455 70 -155 215 -303 392 -400 33 -18 62 -35 65 -37 3 -3 8 -41 12 -86 10
-126 40 -264 69 -318 7 -13 16 -31 20 -39 4 -8 17 -33 29 -55 57 -110 210
-269 308 -321 21 -10 39 -21 42 -25 3 -3 28 -16 55 -29 28 -12 62 -29 77 -36
14 -8 35 -14 45 -14 10 0 24 -5 30 -11 6 -6 35 -14 64 -19 30 -5 77 -14 104
-19 64 -13 372 -13 450 -1 33 5 88 14 122 19 34 5 77 14 95 19 18 6 60 18 93
27 59 17 87 27 173 59 23 9 61 23 85 32 56 21 105 42 207 86 105 46 471 236
555 289 17 10 53 30 80 44 28 14 57 30 65 35 8 5 38 23 67 39 l52 30 21 -47
c65 -143 162 -326 185 -352 8 -9 15 -20 15 -25 0 -32 243 -290 365 -387 110
-87 292 -191 430 -245 208 -83 575 -153 729 -140 141 12 289 38 416 74 76 21
123 39 208 82 112 55 127 63 130 73 2 4 8 8 13 8 10 0 46 24 98 65 33 26 160
152 186 185 117 150 198 331 218 490 18 144 6 408 -21 457 -7 12 -12 34 -12
48 0 15 -6 39 -14 53 -7 15 -30 61 -50 102 -106 215 -253 368 -442 459 -38 19
-81 40 -96 47 -14 8 -37 14 -50 14 -13 0 -29 5 -34 10 -6 6 -33 15 -60 20 -27
5 -69 14 -94 21 -72 19 -469 16 -548 -5 -35 -9 -74 -16 -87 -16 -22 0 -76 -14
-176 -45 -26 -8 -54 -15 -64 -15 -9 0 -31 -6 -48 -14 -18 -7 -65 -23 -105 -36
-40 -12 -75 -26 -78 -31 -3 -5 -14 -9 -24 -9 -10 0 -31 -6 -47 -14 -15 -7 -44
-20 -63 -28 -19 -8 -55 -24 -80 -36 -25 -11 -72 -32 -105 -47 -79 -35 -179
-85 -290 -145 -49 -27 -97 -52 -105 -55 -8 -4 -22 -11 -30 -16 -17 -10 -77
-37 -88 -40 -28 -6 -54 450 -45 791 5 224 5 225 31 253 14 15 29 27 33 27 11
0 90 53 181 122 42 32 80 58 83 58 8 0 166 118 180 134 6 7 48 41 95 76 47 35
90 69 95 75 6 6 30 27 55 45 25 19 63 51 85 72 22 20 55 48 74 62 106 79 493
462 605 600 47 59 48 61 43 114 l-6 54 73 76 c157 165 252 291 393 517 21 34
100 197 123 255 12 30 26 63 31 72 10 20 20 56 56 213 23 98 26 132 26 305 1
258 -20 358 -112 550 -105 220 -251 380 -462 505 -90 53 -193 92 -334 125 -73
18 -308 24 -390 11 -137 -22 -178 -30 -189 -41 -5 -5 -19 -10 -29 -10 -17 0
-37 -8 -97 -41 -76 -41 -97 -53 -118 -70 -18 -14 -41 -19 -81 -19 -87 0 -164
-24 -229 -72 -28 -21 -92 -102 -92 -118 0 -6 -7 -34 -16 -62 -16 -48 -16 -53
5 -118 17 -52 32 -77 69 -111 72 -68 98 -79 191 -79 98 0 141 19 222 100 70
70 102 137 96 203 l-4 48 56 32 c131 76 210 97 365 97 69 0 127 -4 131 -9 3
-5 31 -13 62 -17 31 -3 68 -13 82 -20 14 -8 31 -14 36 -14 10 0 136 -61 145
-70 3 -3 24 -18 47 -33 49 -34 145 -126 190 -182 35 -45 123 -211 123 -233 0
-8 6 -26 14 -40 56 -107 54 -533 -2 -639 -7 -12 -12 -33 -12 -47 0 -14 -4 -27
-9 -30 -5 -3 -12 -18 -15 -33 -4 -16 -13 -43 -21 -60 -8 -18 -22 -50 -31 -70
-9 -21 -20 -45 -25 -53 -4 -8 -18 -33 -30 -55 -39 -72 -192 -295 -231 -336 -7
-8 -35 -41 -63 -74 -27 -33 -74 -86 -104 -117 -53 -57 -55 -58 -107 -58 l-53
0 -103 -97 c-56 -54 -121 -116 -144 -138 -68 -66 -126 -118 -174 -156 -25 -20
-57 -47 -71 -60 -46 -43 -103 -93 -154 -134 -27 -22 -80 -67 -119 -100 -39
-33 -116 -96 -171 -139 -55 -44 -104 -85 -110 -91 -16 -17 -247 -191 -272
-204 -29 -15 -115 -14 -150 1 -26 11 -142 93 -153 109 -3 3 -36 30 -74 59 -37
29 -76 60 -85 69 -9 9 -50 43 -91 76 -41 33 -109 88 -150 124 -41 35 -99 84
-129 110 -173 146 -310 270 -421 376 -189 181 -207 195 -267 195 -48 0 -52 2
-109 63 -240 258 -401 496 -487 722 -8 22 -22 58 -30 80 -46 124 -82 335 -74
444 8 126 37 257 72 336 29 65 57 121 68 140 48 79 161 196 241 249 178 117
286 149 501 150 163 0 215 -12 342 -76 l85 -43 2 -76 c2 -74 4 -77 49 -137 78
-101 153 -142 258 -142 110 0 195 52 249 152 27 51 27 159 1 218 -51 114 -200
202 -314 187 -38 -6 -51 -1 -134 48 -50 30 -98 55 -105 55 -8 0 -18 4 -24 9
-16 16 -95 41 -197 61 -104 21 -307 26 -397 9z m3510 -4849 c75 -10 156 -27
185 -40 132 -56 205 -102 280 -175 34 -32 87 -100 98 -125 4 -8 18 -35 32 -59
14 -24 25 -48 25 -54 0 -5 6 -23 14 -40 64 -144 61 -377 -6 -557 -102 -271
-356 -469 -703 -548 -101 -23 -469 -23 -580 0 -107 23 -205 52 -280 84 -16 7
-37 15 -45 18 -8 3 -23 10 -32 16 -20 11 -28 15 -103 56 -101 54 -196 127
-310 239 -108 106 -193 220 -250 335 -26 52 -53 108 -61 123 -8 16 -14 33 -14
39 0 5 -7 25 -16 43 -8 18 -14 46 -12 61 3 27 12 35 98 82 57 31 522 263 560
279 19 8 48 21 63 29 16 8 35 14 44 14 8 0 27 6 41 14 15 8 47 22 72 31 25 9
60 23 78 31 18 8 40 14 48 14 9 0 30 6 47 14 54 23 287 74 367 79 99 7 299 5
360 -3z"/>
<path d="M4494 6955 c-4 -8 1 -26 10 -40 9 -13 16 -33 16 -43 0 -10 7 -27 15
-38 8 -10 15 -27 15 -36 0 -9 6 -29 14 -45 8 -15 22 -48 31 -73 9 -25 23 -58
31 -73 8 -16 14 -35 14 -42 0 -7 6 -26 14 -42 8 -15 22 -48 31 -73 9 -25 23
-58 31 -73 8 -16 14 -35 14 -42 0 -13 6 -28 44 -103 9 -19 16 -41 16 -51 0 -9
7 -26 15 -37 8 -10 15 -27 15 -36 0 -9 7 -30 15 -47 8 -17 22 -45 30 -62 8
-17 15 -37 15 -46 0 -8 6 -27 14 -41 8 -15 21 -45 29 -67 42 -112 50 -132 63
-158 8 -16 14 -35 14 -42 0 -7 7 -27 15 -44 8 -17 22 -45 30 -62 8 -17 15 -38
15 -48 0 -9 7 -26 15 -37 8 -10 15 -27 15 -36 0 -9 7 -31 16 -50 38 -75 44
-90 44 -103 0 -7 6 -26 14 -42 8 -15 22 -48 31 -73 9 -25 23 -58 31 -73 8 -16
14 -36 14 -46 0 -9 7 -26 15 -37 8 -10 15 -26 15 -35 0 -9 6 -22 14 -29 8 -6
16 -21 18 -32 2 -12 9 -23 16 -26 17 -5 15 30 -3 54 -8 10 -15 27 -15 37 0 11
-6 31 -13 45 -8 15 -21 42 -30 60 -9 19 -17 41 -17 51 0 9 -7 26 -15 37 -8 10
-15 28 -15 39 0 11 -7 29 -15 39 -8 11 -15 30 -15 42 0 12 -7 27 -15 34 -8 7
-15 22 -15 34 0 12 -7 31 -15 42 -8 10 -15 29 -15 40 0 12 -7 27 -15 34 -8 7
-15 22 -15 34 0 12 -7 31 -15 42 -8 10 -15 28 -15 40 0 11 -7 29 -15 40 -8 10
-15 28 -15 40 0 11 -7 29 -15 40 -8 10 -15 29 -15 40 0 12 -7 27 -15 34 -8 7
-15 22 -15 34 0 12 -7 31 -15 42 -8 10 -15 28 -15 40 0 11 -7 29 -15 40 -8 10
-15 29 -15 40 0 12 -7 27 -15 34 -8 7 -15 22 -15 34 0 12 -7 31 -15 42 -8 10
-15 27 -15 37 0 11 -6 31 -14 45 -8 15 -21 47 -31 72 -9 25 -23 58 -31 73 -8
16 -14 36 -14 46 0 9 -7 26 -15 37 -8 10 -15 29 -15 40 0 12 -7 27 -15 34 -8
7 -15 22 -15 34 0 12 -7 31 -15 42 -8 10 -15 28 -15 39 0 11 -7 29 -15 39 -8
11 -15 30 -15 42 0 12 -7 27 -15 34 -8 7 -15 22 -15 34 0 12 -7 31 -15 42 -8
10 -15 27 -15 37 0 11 -6 31 -14 45 -7 15 -23 48 -35 75 -24 51 -29 55 -37 32z"/>
<path d="M4580 6921 c0 -22 6 -44 15 -51 8 -7 15 -22 15 -34 0 -12 7 -31 15
-42 8 -10 15 -28 15 -40 0 -11 7 -29 15 -40 8 -10 15 -27 15 -36 0 -9 7 -30
15 -47 8 -17 22 -45 30 -62 8 -17 15 -37 15 -46 0 -8 6 -27 13 -41 8 -15 21
-42 30 -60 9 -19 17 -41 17 -51 0 -9 7 -26 15 -37 8 -10 15 -27 15 -37 0 -11
6 -31 13 -45 8 -15 21 -42 30 -60 9 -19 17 -40 17 -49 0 -8 6 -27 13 -41 8
-15 21 -42 30 -60 9 -19 17 -41 17 -51 0 -9 7 -26 15 -37 8 -10 15 -28 15 -40
0 -11 7 -29 15 -40 8 -10 15 -25 15 -32 0 -15 21 -67 46 -115 8 -16 14 -35 14
-44 0 -8 6 -27 14 -41 8 -15 21 -47 31 -72 9 -25 23 -58 31 -73 8 -16 14 -35
14 -44 0 -8 6 -27 14 -41 8 -15 21 -47 31 -72 9 -25 23 -58 31 -73 8 -16 14
-33 14 -39 0 -5 7 -26 16 -46 9 -21 22 -52 30 -70 8 -18 14 -41 14 -51 0 -10
7 -24 15 -31 8 -7 15 -21 15 -31 0 -18 37 -99 50 -109 4 -3 10 -17 14 -32 3
-16 11 -28 16 -28 15 0 12 37 -5 54 -8 8 -15 21 -15 30 0 15 -19 66 -46 119
-31 63 -24 73 133 223 82 76 161 152 177 168 l30 28 -55 51 c-30 28 -146 139
-259 247 -112 107 -247 235 -300 285 -52 49 -114 110 -137 133 -39 41 -83 114
-83 139 0 6 -6 24 -14 40 -8 15 -22 48 -31 73 -10 25 -23 57 -31 72 -8 14 -14
33 -14 41 0 9 -7 29 -15 46 -8 17 -22 45 -30 62 -8 17 -15 37 -15 44 0 7 -6
26 -14 42 -8 15 -22 48 -31 73 -9 25 -23 59 -30 75 -7 17 -16 42 -19 58 -9 40
-26 33 -26 -12z"/>
<path d="M4074 6070 c-5 -8 -50 -53 -99 -100 -50 -47 -171 -162 -270 -256 -99
-94 -199 -189 -222 -211 -24 -21 -43 -44 -43 -50 0 -12 280 -283 292 -283 5 0
16 17 24 38 8 20 18 44 23 52 5 9 12 30 15 48 4 17 12 34 17 37 5 4 9 14 9 23
0 9 6 28 13 42 7 14 24 54 37 90 12 36 27 69 32 74 4 6 8 16 8 24 0 13 31 89
50 124 6 10 10 23 10 30 0 7 6 24 13 38 7 14 21 48 31 75 18 50 28 73 61 152
18 43 17 82 -1 53z"/>
<path d="M4440 5792 c-19 -9 -39 -23 -43 -29 -4 -7 -15 -13 -24 -13 -19 0
-217 -200 -239 -241 -8 -16 -19 -29 -24 -29 -6 0 -10 -6 -10 -14 0 -8 -3 -16
-7 -18 -12 -5 -94 -125 -110 -158 -3 -8 -9 -17 -13 -20 -12 -9 -80 -128 -80
-139 0 -6 -3 -11 -8 -11 -4 0 -18 -24 -32 -52 -13 -29 -30 -59 -37 -66 -7 -7
-13 -22 -13 -31 0 -10 -7 -24 -15 -31 -17 -14 -21 -60 -5 -60 5 0 13 12 16 27
4 15 13 34 21 41 7 7 13 19 13 26 0 7 10 22 23 34 l22 21 80 -76 c44 -42 141
-135 216 -207 74 -72 192 -184 262 -249 l126 -117 33 32 c80 79 430 410 499
474 102 93 103 96 81 142 -28 58 -182 313 -214 353 -15 20 -28 40 -28 44 0 3
-6 13 -12 20 -7 8 -18 20 -23 27 -118 151 -187 223 -250 263 -16 11 -32 22
-35 25 -13 13 -99 50 -116 49 -10 0 -35 -8 -54 -17z"/>
<path d="M4285 5739 c-10 -15 3 -25 16 -12 7 7 7 13 1 17 -6 3 -14 1 -17 -5z"/>
<path d="M4234 5698 c-16 -13 -51 -47 -79 -77 -27 -30 -58 -63 -67 -73 -10
-10 -18 -22 -18 -27 0 -5 -7 -11 -15 -15 -8 -3 -15 -10 -15 -16 0 -6 -5 -16
-10 -23 -27 -32 -80 -107 -80 -112 0 -4 -13 -24 -28 -44 -16 -20 -32 -43 -35
-51 -4 -8 -16 -28 -27 -45 -11 -16 -24 -40 -29 -52 -5 -11 -15 -24 -20 -28 -6
-3 -11 -15 -11 -26 0 -10 -4 -19 -10 -19 -5 0 -12 -11 -16 -25 -3 -13 -12 -29
-20 -36 -8 -6 -14 -19 -14 -29 0 -10 -7 -23 -15 -30 -8 -7 -15 -22 -15 -34 0
-11 -7 -30 -15 -40 -17 -23 -20 -46 -5 -46 6 0 13 13 16 29 4 17 12 32 20 35
8 3 14 14 14 24 0 11 7 25 15 32 8 7 15 21 15 32 0 10 7 21 15 24 8 4 15 14
15 24 0 10 7 23 15 30 8 7 15 18 15 25 0 7 7 18 15 25 8 7 15 21 15 31 0 11 4
19 9 19 5 0 14 14 20 30 5 17 15 30 20 30 6 0 11 9 11 20 0 11 4 20 10 20 5 0
12 11 16 25 3 14 10 25 15 25 5 0 14 10 19 23 13 30 30 54 63 91 15 17 27 36
27 44 0 7 7 15 15 18 8 4 15 10 15 14 0 10 63 82 128 148 48 48 51 65 6 30z"/>
<path d="M3747 4850 c-6 -24 8 -36 17 -14 8 22 7 34 -3 34 -5 0 -11 -9 -14
-20z"/>
<path d="M5330 4841 c0 -5 3 -17 6 -26 5 -12 9 -14 14 -4 5 7 6 18 3 26 -6 15
-23 18 -23 4z"/>
</g>
</svg>
